<svg xmlns="http://www.w3.org/2000/svg" width="44.617" height="52.267" viewBox="0 0 44.617 52.267">
    <defs>
        <filter id="eioansj5ua" width="44.617" height="52.267" x="0" y="0" filterUnits="userSpaceOnUse">
            <feOffset dy="3"/>
            <feGaussianBlur result="blur" stdDeviation="3"/>
            <feFlood flood-opacity=".161"/>
            <feComposite in2="blur" operator="in"/>
            <feComposite in="SourceGraphic"/>
        </filter>
    </defs>
    <g>
        <g>
            <g filter="url(#eioansj5ua)" transform="translate(-153.383 -249.866) translate(105.232 255.866) translate(48.15 -6)">
                <path fill="#ee3840" d="M83.768 13.308c0 10.657-12.03 20.526-12.03 20.526a2.1 2.1 0 0 1-2.556 0s-12.03-9.869-12.03-20.526a13.309 13.309 0 0 1 26.617 0z" transform="translate(-48.15 6)"/>
            </g>
            <path fill="#fff" d="M166.548 119.984a10.589 10.589 0 1 1 10.589-10.589 10.6 10.6 0 0 1-10.589 10.589z" transform="translate(-153.383 -249.866) translate(105.232 255.866) translate(-96.088 -96.087)"/>
        </g>
        <path fill="#febb2c" d="M-1198.079 1118.137c-.24 0-.463-.009-.683-.021a6.727 6.727 0 0 1-6.454-6.312 6.926 6.926 0 0 1 1.563-4.719 6.841 6.841 0 0 1 4.357-2.358 5.48 5.48 0 0 1 .754-.037h6.26a.879.879 0 0 1 .755.424.875.875 0 0 1 .031.863l-.368.711-.582 1.121c-.737 1.419-1.5 2.886-2.236 4.333a1.182 1.182 0 0 1-1.158.726h-.024c-.948-.01-1.958-.015-3.275-.015h-2.895a5.146 5.146 0 0 0 .443.806 3.669 3.669 0 0 0 3.061 1.583c.282.006.581.009.941.009h.459a.523.523 0 0 1 .447.25.524.524 0 0 1 .019.513l-.948 1.839a.523.523 0 0 1-.465.283zm-2.44-8.173c1.169 0 2.422 0 3.689-.015a.479.479 0 0 0 .051-.074c.335-.615.661-1.251.977-1.865l.221-.429h-1.633c-.612 0-1.113.006-1.575.02a3.49 3.49 0 0 0-2.228.923 3.64 3.64 0 0 0-1.033 1.448z" transform="translate(-153.383 -249.866) translate(1373.999 -841.732)"/>
    </g>
</svg>
